/* XPM */
static char *result[] = {
/* columns rows colors chars-per-pixel */
"64 64 16 1 ",
"  c #160E07",
". c #A86836",
"X c black",
"o c #27180D",
"O c #100A05",
"+ c #0D0804",
"@ c #0A0603",
"# c #0C0704",
"$ c #0E0905",
"% c #0F0905",
"& c #0E0904",
"* c #120B06",
"= c #140D07",
"- c #110B06",
"; c #150D07",
": c #1B1109",
/* pixels */
" .............................XXX..............................o",
"O.............................XXX..............................+",
"@.............................XXX..............................+",
"#.............................XXX..............................+",
"$.............................XXX..............................+",
"%.............................XXX..............................+",
"+.............................XXX..............................+",
"%.............................XXX..............................+",
"+.............................XXX..............................+",
"%.............................XXX..............................&",
"%.............................XXX..............................&",
"%.............................XXX..............................&",
"*.............................XXX..............................&",
"%.............................XXX..............................&",
"=.............................XXX..............................&",
"-.............................XXX..............................$",
"=.............................XXX..............................&",
"*.............................XXX..............................$",
"%.............................XXX..............................&",
"=.............................XXX..............................&",
"=.............................XXXXXXXXXXXXXXXXXXXXXXXXXXXXXXXXXX",
"=.............................XXXXXXXXXXXXXXXXXXXXXXXXXXXXXXXXXX",
"=.............................XXX..............................$",
"=.............................XXX..............................$",
"=.............................XXX..............................$",
"=.............................XXX..............................$",
";.............................XXX..............................$",
"=.............................XXX..............................$",
"=.............................XXX..............................$",
";.............................XXX..............................%",
"=.............................XXX..............................$",
"=.............................XXX..............................$",
";.............................XXX..............................%",
"=.............................XXX..............................%",
"=.............................XXX..............................%",
";.............................XXX..............................%",
"=.............................XXX..............................%",
"=.............................XXX..............................%",
";.............................XXX..............................%",
"=.............................XXX..............................%",
"=.............................XXX..............................%",
"=.............................XXX..............................O",
"XXXXXXXXXXXXXXXXXXXXXXXXXXXXXXXXX..............................O",
"XXXXXXXXXXXXXXXXXXXXXXXXXXXXXXXXX..............................%",
"=.............................XXX..............................O",
"=.............................XXX..............................O",
";.............................XXX..............................O",
"=.............................XXX..............................O",
"=.............................XXX..............................O",
";.............................XXX..............................O",
"=.............................XXX..............................O",
";.............................XXX..............................O",
"=.............................XXX..............................O",
"=.............................XXX..............................O",
";.............................XXX..............................O",
"=.............................XXX..............................O",
";.............................XXX..............................O",
"=.............................XXX..............................O",
";.............................XXX..............................O",
"=.............................XXX..............................O",
"=.............................XXX..............................O",
";.............................XXX..............................O",
"=.............................XXX..............................-",
";.............................XXX..............................:"
};
