/* XPM */
static char *result[] = {
/* columns rows colors chars-per-pixel */
"64 64 175 2 ",
"   c black",
".  c #010100",
"X  c #010101",
"o  c #020202",
"O  c gray1",
"+  c #040300",
"@  c #050400",
"#  c #060400",
"$  c #070500",
"%  c #060501",
"&  c #040404",
"*  c gray2",
"=  c #060606",
"-  c #070707",
";  c #080600",
":  c #0A0803",
">  c #0D0A00",
",  c #0E0A00",
"<  c gray3",
"1  c #090909",
"2  c gray4",
"3  c #0C0B08",
"4  c #0F0E09",
"5  c #0C0C0C",
"6  c gray5",
"7  c #0E0E0E",
"8  c gray6",
"9  c #100E09",
"0  c #110F09",
"q  c #100E0A",
"w  c #11110E",
"e  c #14130F",
"r  c #101010",
"t  c #111111",
"y  c #121110",
"u  c gray7",
"i  c #141310",
"p  c #151410",
"a  c #161410",
"s  c #161512",
"d  c gray8",
"f  c #151515",
"g  c #161616",
"h  c #181818",
"j  c #191919",
"k  c gray10",
"l  c #1B1B1B",
"z  c gray11",
"x  c #231A00",
"c  c #241A00",
"v  c #251B00",
"b  c #271D00",
"n  c #281D00",
"m  c #342600",
"M  c #352700",
"N  c #362800",
"B  c gray13",
"V  c gray16",
"C  c #2A2A2A",
"Z  c #2C2C2C",
"A  c gray19",
"S  c #313131",
"D  c gray21",
"F  c #373737",
"G  c gray23",
"H  c #3C3C3C",
"J  c gray24",
"K  c #3F3F3F",
"L  c #453300",
"P  c #473400",
"I  c #533D00",
"U  c #543E00",
"Y  c #553E00",
"T  c #563F00",
"R  c #624800",
"E  c #654A00",
"W  c #715300",
"Q  c #725400",
"!  c #745500",
"~  c #755600",
"^  c gray34",
"/  c #585858",
"(  c #5A5A5A",
")  c #5B5B5B",
"_  c gray37",
"`  c #606060",
"'  c #626262",
"]  c gray39",
"[  c #646464",
"{  c #656565",
"}  c #676767",
"|  c DimGray",
" . c #6A6A6A",
".. c #6C6C6C",
"X. c #6D6D6D",
"o. c gray43",
"O. c gray45",
"+. c #747474",
"@. c #777777",
"#. c gray47",
"$. c gray48",
"%. c #7B7B7B",
"&. c #956D00",
"*. c #966E00",
"=. c #9C7200",
"-. c #9F7500",
";. c #A07500",
":. c #A97C00",
">. c #C59000",
",. c #CB9500",
"<. c #CD9600",
"1. c #CE9700",
"2. c #CF9800",
"3. c #D09900",
"4. c #D19900",
"5. c #D29A00",
"6. c #D39B00",
"7. c #D49B00",
"8. c #DCA100",
"9. c #DFA400",
"0. c #E3A600",
"q. c #E6A900",
"w. c #E7A900",
"e. c #E8AA00",
"r. c #E9AB00",
"t. c #EAAC00",
"y. c #EBAC00",
"u. c #ECAD00",
"i. c #EDAE00",
"p. c #EEAF00",
"a. c #EFAF00",
"s. c #F1B100",
"d. c #F2B100",
"f. c #F3B200",
"g. c #F4B300",
"h. c #FAB700",
"j. c #FBB800",
"k. c #FEBA00",
"l. c #FFBB00",
"z. c #898989",
"x. c #8D8D8D",
"c. c #8E8E8E",
"v. c #909090",
"b. c #9A9A9A",
"n. c gray61",
"m. c gray62",
"M. c #9F9F9F",
"N. c #A0A0A0",
"B. c gray64",
"V. c #A4A4A4",
"C. c #A5A5A5",
"Z. c #A7A7A7",
"A. c #AAAAAA",
"S. c #ACACAC",
"D. c #AEAEAE",
"F. c gray73",
"G. c #D2D2D2",
"H. c gray84",
"J. c gray85",
"K. c gray86",
"L. c #DDDDDD",
"P. c gray87",
"I. c gray88",
"U. c gray89",
"Y. c #E6E6E6",
"T. c #E7E7E7",
"R. c #ECECEC",
"E. c gray93",
"W. c #EEEEEE",
"Q. c #EFEFEF",
"!. c gray94",
"~. c gray95",
"^. c #F3F3F3",
"/. c #F4F4F4",
"(. c None",
/* pixels */
"(.(.(.(.(.(.(.(.(.(.(.(.(.(.(.(.(.(.(.(.(.(.(.(.(.(.(.(.(.(.(.(.(.(.(.(.(.(.(.(.(.(.(.(.(.(.(.(.(.(.(.(.(.(.(.(.(.(.(.(.(.(.(.(.",
"(.(.(.(.(.(.(.(.(.(.(.(.(.(.(.(.(.(.(.(.(.(.(.(.(.(.(.(.(.(.(.(.(.(.(.(.(.(.(.(.(.(.(.(.(.(.(.(.(.(.(.(.(.(.(.(.(.(.(.(.(.(.(.(.",
"(.(.(.(.(.(.(.(.(.(.(.(.(.(.(.(.(.(.(.(.(.(.(.(.(.(.(.(.(.(.(.(.(.(.(.(.(.(.(.(.(.(.(.(.(.(.(.(.(.(.(.(.(.(.(.(.(.(.(.(.(.(.(.(.",
"(.(.(.(.(.(.(.(.(.(.(.(.(.(.(.(.(.(.(.(.(.(.(.(.(.(.(.(.(.(.(.(.(.(.(.(.(.(.(.(.(.(.(.(.(.(.(.(.(.(.(.(.(.(.(.(.(.(.(.(.(.(.(.(.",
"(.(.(.(.(.(.(.(.(.(.(.(.(.(.(.(.(.(.(.(.(.(.(.(.(.(.(.(.(.(.(.(.(.(.(.(.(.(.(.(.(.(.(.(.(.(.(.(.(.(.(.(.(.(.(.(.(.(.(.(.(.(.(.(.",
"(.(.(.(.(.(.(.(.(.(.(.(.(.(.(.(.(.(.(.(.(.(.(.(.(.L.n.[ H l 8   8 l H ] n.L.(.(.(.(.(.(.(.(.(.(.(.(.(.(.(.(.(.(.(.(.(.(.(.(.(.(.",
"(.(.(.(.(.(.(.(.(.(.(.(.(.(.(.(.(.(.(.(.(.(.(.c.S                           A c.(.(.(.(.(.(.(.(.(.(.(.(.(.(.(.(.(.(.(.(.(.(.(.(.",
"(.(.(.(.(.(.(.(.(.(.(.(.(.(.(.(.(.(.(.(.(.$.8                                   7 $.(.(.(.(.(.(.(.(.(.(.(.(.(.(.(.(.(.(.(.(.(.(.",
"(.(.(.(.(.(.(.(.(.(.(.(.(.(.(.(.(.(.(.S.l                                           k D.(.(.(.(.(.(.(.(.(.(.(.(.(.(.(.(.(.(.(.(.",
"(.(.(.(.(.(.(.(.(.(.(.(.(.(.(.(.(.(.{                                                   } (.(.(.(.(.(.(.(.(.(.(.(.(.(.(.(.(.(.(.",
"(.(.(.(.(.(.(.(.(.(.(.(.(.(.(.(.(.K                                                       K (.(.(.(.(.(.(.(.(.(.(.(.(.(.(.(.(.(.",
"(.(.(.(.(.(.(.(.(.(.(.(.(.(.(.(.A                 r B                     B r               A (.(.(.(.(.(.(.(.(.(.(.(.(.(.(.(.(.",
"(.(.(.(.(.(.(.(.(.(.(.(.(.(.(.F                 d ~.J.U.                U.J.~.d               F (.(.(.(.(.(.(.(.(.(.(.(.(.(.(.(.",
"(.(.(.(.(.(.(.(.(.(.(.(.(.(.|                 u Q././.Y.d             d Y././.W.u               ' (.(.(.(.(.(.(.(.(.(.(.(.(.(.(.",
"(.(.(.(.(.(.(.(.(.(.(.(.(.S.                O !.^././.^.D             D ^././.^.!.O               A.(.(.(.(.(.(.(.(.(.(.(.(.(.(.",
"(.(.(.(.(.(.(.(.(.(.(.(.(.h                 * /././././._             _ /././././.*               g (.(.(.(.(.(.(.(.(.(.(.(.(.(.",
"(.(.(.(.(.(.(.(.(.(.(.(.%.                  1 /././././.J             J /././././.1                 $.(.(.(.(.(.(.(.(.(.(.(.(.(.",
"(.(.(.(.(.(.(.(.(.(.(.(.r                     W././././.                /./././.W.                  8 (.(.(.(.(.(.(.(.(.(.(.(.(.",
"(.(.(.(.(.(.(.(.(.(.(.v.                        ^./././.                /././.^.                      x.(.(.(.(.(.(.(.(.(.(.(.(.",
"(.(.(.(.(.(.(.(.(.(.(.S                         ~./././.                /././.~.                      A (.(.(.(.(.(.(.(.(.(.(.(.",
"(.(.(.(.(.(.(.(.(.(.P.                          5 G././.                /./.G.5                         L.(.(.(.(.(.(.(.(.(.(.(.",
"(.(.(.(.(.(.(.(.(.(.n.                            j Q.~.                ~.Q.j                           b.(.(.(.(.(.(.(.(.(.(.(.",
"(.(.(.(.(.(.(.(.(.(.]                               f E.                R.f                             ' (.(.(.(.(.(.(.(.(.(.(.",
"(.(.(.(.(.(.(.(.(.(.J                                                                                   G (.(.(.(.(.(.(.(.(.(.(.",
"(.(.(.(.(.(.(.(.(.(.z                                                                                   l (.(.(.(.(.(.(.(.(.(.(.",
"(.(.(.(.(.(.(.(.(.(.7                                                                                   6 (.(.(.(.(.(.(.(.(.(.(.",
"(.(.(.(.(.(.(.(.(.(.                                                                                      (.(.(.(.(.(.(.(.(.(.(.",
"(.(.(.(.(.(.(.(.(.(.7                                                                                   6 (.(.(.(.(.(.(.(.(.(.(.",
"(.(.(.(.(.(.(.(.(.(.z                                                                                   k (.(.(.(.(.(.(.(.(.(.(.",
"(.(.(.(.(.(.(.(.(.(.H                                                                                   F (.(.(.(.(.(.(.(.(.(.(.",
"(.(.(.(.(.(.(.(.(.(.]                                                                                   ` (.(.(.(.(.(.(.(.(.(.(.",
"(.(.(.(.(.(.(.(.(.(.z.  $ U -.5.s.l.s.5.;.U ;                                     $ U -.5.s.l.s.5.;.U ; K T.(.(.(.(.(.(.(.(.(.(.",
"(.(.(.(.(.(.(.(.(.V.w E q.l.l.l.l.l.l.l.l.l.r.Q #                             + E q.l.l.l.l.l.l.l.l.l.r.Q a B.(.(.(.(.(.(.(.(.(.",
"(.(.(.(.(.(.(.(.+.v 1.l.l.l.l.l.l.l.l.l.l.l.l.l.4.n                         v 1.l.l.l.l.l.l.l.l.l.l.l.l.l.4.n O.(.(.(.(.(.(.(.(.",
"(.(.(.(.(.(.(.#.M i.l.l.l.l.l.l.l.l.l.l.l.l.l.l.l.i.M                     M i.l.l.l.l.l.l.l.l.l.l.l.l.l.l.l.i.M o.(.(.(.(.(.(.(.",
"(.(.(.(.(.(.C.v t.l.l.l.l.l.l.l.l.l.l.l.l.l.l.l.l.l.a.n                 v t.l.l.l.l.l.l.l.l.l.l.l.l.l.l.l.l.l.a.n B.(.(.(.(.(.(.",
"(.(.(.(.(.(.p 1.l.l.l.l.l.l.l.l.l.l.l.l.l.l.l.l.l.l.l.4.@             @ 1.l.l.l.l.l.l.l.l.l.l.l.l.l.l.l.l.l.l.l.4.e T.(.(.(.(.(.",
"(.(.(.(.(...Q l.l.l.l.l.l.l.l.l.l.l.l.l.l.l.l.l.l.l.l.l.~             Q l.l.l.l.l.l.l.l.l.l.l.l.l.l.l.l.l.l.l.l.l.~ | (.(.(.(.(.",
"(.(.(.(.(.9 e.l.l.l.l.l.l.l.l.l.l.l.l.l.l.l.l.l.l.l.l.l.t.;         $ e.l.l.l.l.l.l.l.l.l.l.l.l.l.l.l.l.l.l.l.l.l.t.0 (.(.(.(.(.",
"(.(.(.(.M.I l.l.l.l.l.l.l.l.l.l.l.l.l.l.l.l.l.l.l.l.l.l.l.T         I l.l.l.l.l.l.l.l.l.l.l.l.l.l.l.l.l.l.l.l.l.l.l.T n.(.(.(.(.",
"(.(.(.(.( =.l.l.l.l.l.l.l.l.l.l.l.l.l.l.l.l.l.l.l.l.l.l.l.;.        =.l.l.l.l.l.l.l.l.l.l.l.l.l.l.l.l.l.l.l.l.l.l.l.;.^ (.(.(.(.",
"(.(.(.(.Z 4.l.l.l.l.l.l.l.l.l.l.l.l.l.l.l.l.l.l.l.l.l.l.l.6.        4.l.l.l.l.l.l.l.l.l.l.k.l.l.l.l.l.l.l.l.l.l.l.l.6.V (.(.(.(.",
"(.(.(.(.r p.l.l.l.l.l.l.l.l.l.,.@   > j.l.l.l.l.l.l.l.l.l.f.        p.l.l.l.l.l.l.l.l.l.8.>   . l.l.l.l.l.l.l.l.l.l.f.5 (.(.(.(.",
"(.(.(.(.o l.l.l.l.l.l.l.l.l.l.7.      s.l.l.l.l.l.l.l.l.l.l.        l.l.l.l.l.l.l.l.l.l.:.      9.l.l.l.l.l.l.l.l.l.l.  (.(.(.(.",
"(.(.(.(.r p.l.l.l.l.l.l.l.l.l.y.,   + l.l.l.l.l.l.l.l.l.l.f.        p.l.l.l.l.l.l.l.l.l.h.  . . d.l.l.l.l.l.l.l.l.l.f.5 (.(.(.(.",
"(.(.(.(.Z 4.l.l.l.l.l.l.l.l.l.l.l.g.h.l.l.l.l.l.l.l.l.l.l.6.        4.l.l.l.l.l.l.l.l.l.l.j.>.a.l.l.l.l.l.l.l.l.l.l.6.C (.(.(.(.",
"(.(.(.(.( =.l.l.l.l.l.l.l.l.l.l.l.l.l.l.l.l.l.l.l.l.l.l.l.;.        =.l.l.l.l.l.l.l.l.l.l.l.l.l.l.l.l.l.l.l.l.l.l.l.;./ (.(.(.(.",
"(.(.(.(.M.I l.l.l.l.l.l.l.l.l.l.l.l.l.l.l.l.l.l.l.l.l.l.l.Y X   X * I l.l.l.l.l.l.l.l.l.l.l.l.l.l.l.l.l.l.l.l.l.l.l.Y n.(.(.(.(.",
"(.(.(.(.(.9 w.l.l.l.l.l.l.l.l.l.l.l.l.l.l.l.l.l.l.l.l.l.r.: o X   o 4 w.l.l.l.l.l.l.l.l.l.l.l.l.l.l.l.l.l.l.l.l.l.r.0 (.(.(.(.(.",
"(.(.(.(.(.X.W l.l.l.l.l.l.l.l.l.l.l.l.l.l.l.l.l.l.l.l.l.! *         - W l.l.l.l.l.l.l.l.l.l.l.l.l.l.l.l.l.l.l.l.l.!  .(.(.(.(.(.",
"(.(.(.(.(.(.s <.l.l.l.l.l.l.l.l.l.l.l.l.l.l.l.l.l.l.l.3.% X     X     3 <.l.l.l.l.l.l.l.l.l.l.l.l.l.l.l.l.l.l.l.3.e T.(.(.(.(.(.",
"(.(.(.(.(.(.Z.x t.l.l.l.l.l.l.l.l.l.l.l.l.l.l.l.l.l.y.b                 x t.l.l.l.l.l.l.l.l.l.l.l.l.l.l.l.l.l.y.b C.(.(.(.(.(.(.",
"(.(.(.(.(.(.(.#.m u.l.l.l.l.l.l.l.l.l.l.l.l.l.l.l.p.N #.=             = #.m u.l.l.l.l.l.l.l.l.l.l.l.l.l.l.l.p.N #.(.(.(.(.(.(.(.",
"(.(.(.(.(.(.(.(.@.c 1.l.l.l.l.l.l.l.l.l.l.l.l.l.1.v @.(.(.=   X       (.(.@.c 1.l.l.l.l.l.l.l.l.l.l.l.l.l.1.v @.(.(.(.(.(.(.(.(.",
"(.(.(.(.(.(.(.(.(.Z.y R 0.l.l.l.l.l.l.l.l.l.e.W i V.(.(.(.o & O X   o (.(.(.Z.y R 0.l.l.l.l.l.l.l.l.l.e.W i V.(.(.(.(.(.(.(.(.(.",
"(.(.(.(.(.(.(.(.(.(.(.X.q L &.2.i.k.i.3.*.P q ..(.(.(.(.(.= o o o   * (.(.(.(.(.X.q L &.2.i.k.i.3.*.P q ..(.(.(.(.(.(.(.(.(.(.(.",
"(.(.(.(.(.(.(.(.(.(.(.(.(.N.) V t   r Z ) m.(.(.(.(.(.(.(.2         X P.(.(.(.(.(.(.N.) V t   r Z ) m.(.(.(.(.(.(.(.(.(.(.(.(.(.",
"(.(.(.(.(.(.(.(.(.(.(.(.(.(.(.(.(.(.(.(.(.(.(.(.(.(.(.- &               < H.(.(.(.(.(.(.(.(.(.(.(.(.(.(.(.(.(.(.(.(.(.(.(.(.(.(.",
"(.(.(.(.(.(.(.(.(.(.(.(.(.(.(.(.(.(.(.(.(.(.(.(.(.(.8 X X     X X X       < F.(.(.(.(.(.(.(.(.(.(.(.(.(.(.(.(.(.(.(.(.(.(.(.(.(.",
"(.(.(.(.(.(.(.(.(.(.(.(.(.(.(.(.(.(.(.(.(.(.(.(.(.(.(.(.(.(.(.(.(.(.(.K.I.(.(.(.(.(.(.(.(.(.(.(.(.(.(.(.(.(.(.(.(.(.(.(.(.(.(.(.",
"(.(.(.(.(.(.(.(.(.(.(.(.(.(.(.(.(.(.(.(.(.(.(.(.(.(.(.(.(.(.(.(.(.(.(.(.(.(.(.(.(.(.(.(.(.(.(.(.(.(.(.(.(.(.(.(.(.(.(.(.(.(.(.(.",
"(.(.(.(.(.(.(.(.(.(.(.(.(.(.(.(.(.(.(.(.(.(.(.(.(.(.(.(.(.(.(.(.(.(.(.(.(.(.(.(.(.(.(.(.(.(.(.(.(.(.(.(.(.(.(.(.(.(.(.(.(.(.(.(.",
"(.(.(.(.(.(.(.(.(.(.(.(.(.(.(.(.(.(.(.(.(.(.(.(.(.(.(.(.(.(.(.(.(.(.(.(.(.(.(.(.(.(.(.(.(.(.(.(.(.(.(.(.(.(.(.(.(.(.(.(.(.(.(.(.",
"(.(.(.(.(.(.(.(.(.(.(.(.(.(.(.(.(.(.(.(.(.(.(.(.(.(.(.(.(.(.(.(.(.(.(.(.(.(.(.(.(.(.(.(.(.(.(.(.(.(.(.(.(.(.(.(.(.(.(.(.(.(.(.(."
};
