/* XPM */
static char *result[] = {
/* columns rows colors chars-per-pixel */
"64 64 208 2 ",
"   c black",
".  c #010100",
"X  c #010101",
"o  c #020102",
"O  c #020202",
"+  c gray1",
"@  c #040300",
"#  c #050400",
"$  c #060400",
"%  c #070500",
"&  c #060501",
"*  c #040304",
"=  c #050304",
"-  c #040404",
";  c gray2",
":  c #060405",
">  c #070406",
",  c #060606",
"<  c #070707",
"1  c #080600",
"2  c #080507",
"3  c #0A0803",
"4  c #0D0A00",
"5  c #0E0A00",
"6  c #090608",
"7  c #0A0609",
"8  c #0B070A",
"9  c gray3",
"0  c #090909",
"q  c gray4",
"w  c #0C0B08",
"e  c #0F0E09",
"r  c #0C0C0C",
"t  c gray5",
"y  c #0E0E0E",
"u  c gray6",
"i  c #100E09",
"p  c #110F09",
"a  c #100E0A",
"s  c #11110E",
"d  c #14130F",
"f  c #120B10",
"g  c #130C11",
"h  c #180F15",
"j  c #101010",
"k  c #111111",
"l  c #121110",
"z  c gray7",
"x  c #141310",
"c  c #151410",
"v  c #161410",
"b  c #161512",
"n  c gray8",
"m  c #151515",
"M  c #161616",
"N  c #191016",
"B  c #1E131A",
"V  c #181818",
"C  c #191919",
"Z  c gray10",
"A  c #1B1B1B",
"S  c gray11",
"D  c #231A00",
"F  c #241A00",
"G  c #251B00",
"H  c #271D00",
"J  c #281D00",
"K  c #342600",
"L  c #352700",
"P  c #362800",
"I  c #241720",
"U  c #261821",
"Y  c #2C1C27",
"T  c #2D1C28",
"R  c gray13",
"E  c gray16",
"W  c #2A2A2A",
"Q  c #2C2C2C",
"!  c #382331",
"~  c gray19",
"^  c #313131",
"/  c gray21",
"(  c #373737",
")  c gray23",
"_  c #3C3C3C",
"`  c gray24",
"'  c #3F3F3F",
"]  c #453300",
"[  c #473400",
"{  c #533D00",
"}  c #543E00",
"|  c #553E00",
" . c #563F00",
".. c #624800",
"X. c #654A00",
"o. c #715300",
"O. c #725400",
"+. c #745500",
"@. c #755600",
"#. c #503246",
"$. c gray34",
"%. c #585858",
"&. c #5A5A5A",
"*. c #5B5B5B",
"=. c gray37",
"-. c #606060",
";. c #626262",
":. c gray39",
">. c #646464",
",. c #656565",
"<. c #676767",
"1. c DimGray",
"2. c #6A6A6A",
"3. c #6C6C6C",
"4. c #6D6D6D",
"5. c gray43",
"6. c gray45",
"7. c #747474",
"8. c #777777",
"9. c gray47",
"0. c gray48",
"q. c #7B7B7B",
"w. c #956D00",
"e. c #966E00",
"r. c #9C7200",
"t. c #9F7500",
"y. c #A07500",
"u. c #A97C00",
"i. c #C59000",
"p. c #CB9500",
"a. c #CD9600",
"s. c #CE9700",
"d. c #CF9800",
"f. c #D09900",
"g. c #D19900",
"h. c #D29A00",
"j. c #D39B00",
"k. c #D49B00",
"l. c #DCA100",
"z. c #DFA400",
"x. c #E3A600",
"c. c #E6A900",
"v. c #E7A900",
"b. c #E8AA00",
"n. c #E9AB00",
"m. c #EAAC00",
"M. c #EBAC00",
"N. c #ECAD00",
"B. c #EDAE00",
"V. c #EEAF00",
"C. c #EFAF00",
"Z. c #F1B100",
"A. c #F2B100",
"S. c #F3B200",
"D. c #F4B300",
"F. c #FAB700",
"G. c #FBB800",
"H. c #FEBA00",
"J. c #FFBB00",
"K. c #898989",
"L. c #8D8D8D",
"P. c #8E8E8E",
"I. c #909090",
"U. c #9A9A9A",
"Y. c gray61",
"T. c gray62",
"R. c #9F9F9F",
"E. c #A0A0A0",
"W. c gray64",
"Q. c #A4A4A4",
"!. c #A5A5A5",
"~. c #A7A7A7",
"^. c #AAAAAA",
"/. c #ACACAC",
"(. c #AEAEAE",
"). c gray73",
"_. c #E690CA",
"`. c #EB93CE",
"'. c #F097D3",
"]. c #F298D5",
"[. c #F398D5",
"{. c #F79BD9",
"}. c #F89CDA",
"|. c #F99CDB",
" X c #FA9DDC",
".X c #FB9DDC",
"XX c #FC9EDD",
"oX c #FE9FDF",
"OX c #FFA0E0",
"+X c #D2D2D2",
"@X c gray84",
"#X c gray85",
"$X c gray86",
"%X c #DDDDDD",
"&X c gray87",
"*X c gray88",
"=X c gray89",
"-X c #E6E6E6",
";X c #E7E7E7",
":X c #ECECEC",
">X c gray93",
",X c #EEEEEE",
"<X c #EFEFEF",
"1X c gray94",
"2X c gray95",
"3X c #F3F3F3",
"4X c #F4F4F4",
"5X c None",
/* pixels */
"5X5X5X5X5X5X5X5X5X5X5X5X5X5X5X5X5X5X5X5X5X5X5X5X5X5X5X5X5X5X5X5X5X5X5X5X5X5X5X5X5X5X5X5X5X5X5X5X5X5X5X5X5X5X5X5X5X5X5X5X5X5X5X5X",
"5X5X5X5X5X5X5X5X5X5X5X5X5X5X5X5X5X5X5X5X5X5X5X5X5X5X5X5X5X5X5X5X5X5X5X5X5X5X5X5X5X5X5X5X5X5X5X5X5X5X5X5X5X5X5X5X5X5X5X5X5X5X5X5X",
"5X5X5X5X5X5X5X5X5X5X5X5X5X5X5X5X5X5X5X5X5X5X5X5X5X5X5X5X5X5X5X5X5X5X5X5X5X5X5X5X5X5X5X5X5X5X5X5X5X5X5X5X5X5X5X5X5X5X5X5X5X5X5X5X",
"5X5X5X5X5X5X5X5X5X5X5X5X5X5X5X5X5X5X5X5X5X5X5X5X5X5X5X5X5X5X5X5X5X5X5X5X5X5X5X5X5X5X5X5X5X5X5X5X5X5X5X5X5X5X5X5X5X5X5X5X5X5X5X5X",
"5X5X5X5X5X5X5X5X5X5X5X5X5X5X5X5X5X5X5X5X5X5X5X5X5X5X5X5X5X5X5X5X5X5X5X5X5X5X5X5X5X5X5X5X5X5X5X5X5X5X5X5X5X5X5X5X5X5X5X5X5X5X5X5X",
"5X5X5X5X5X5X5X5X5X5X5X5X5X5X5X5X5X5X5X5X5X5X5X5X5X%XY.>._ A u   u A _ :.Y.%X5X5X5X5X5X5X5X5X5X5X5X5X5X5X5X5X5X5X5X5X5X5X5X5X5X5X",
"5X5X5X5X5X5X5X5X5X5X5X5X5X5X5X5X5X5X5X5X5X5X5XP.^                           ~ P.5X5X5X5X5X5X5X5X5X5X5X5X5X5X5X5X5X5X5X5X5X5X5X5X",
"5X5X5X5X5X5X5X5X5X5X5X5X5X5X5X5X5X5X5X5X5X0.u                                   y 0.5X5X5X5X5X5X5X5X5X5X5X5X5X5X5X5X5X5X5X5X5X5X",
"5X5X5X5X5X5X5X5X5X5X5X5X5X5X5X5X5X5X5X/.A                                           Z (.5X5X5X5X5X5X5X5X5X5X5X5X5X5X5X5X5X5X5X5X",
"5X5X5X5X5X5X5X5X5X5X5X5X5X5X5X5X5X5X,.                                                  <.5X5X5X5X5X5X5X5X5X5X5X5X5X5X5X5X5X5X5X",
"5X5X5X5X5X5X5X5X5X5X5X5X5X5X5X5X5X'                                                       ' 5X5X5X5X5X5X5X5X5X5X5X5X5X5X5X5X5X5X",
"5X5X5X5X5X5X5X5X5X5X5X5X5X5X5X5X~                 j R                     R j               ~ 5X5X5X5X5X5X5X5X5X5X5X5X5X5X5X5X5X",
"5X5X5X5X5X5X5X5X5X5X5X5X5X5X5X(                 n 2X#X=X                =X#X2Xn               ( 5X5X5X5X5X5X5X5X5X5X5X5X5X5X5X5X",
"5X5X5X5X5X5X5X5X5X5X5X5X5X5X1.                z <X4X4X-Xn             n -X4X4X,Xz               ;.5X5X5X5X5X5X5X5X5X5X5X5X5X5X5X",
"5X5X5X5X5X5X5X5X5X5X5X5X5X/.                + 1X3X4X4X3X/             / 3X4X4X3X1X+               ^.5X5X5X5X5X5X5X5X5X5X5X5X5X5X",
"5X5X5X5X5X5X5X5X5X5X5X5X5XV                 ; 4X4X4X4X4X=.            =.4X4X4X4X4X;               M 5X5X5X5X5X5X5X5X5X5X5X5X5X5X",
"5X5X5X5X5X5X5X5X5X5X5X5Xq.                  0 4X4X4X4X4X`             ` 4X4X4X4X4X0                 0.5X5X5X5X5X5X5X5X5X5X5X5X5X",
"5X5X5X5X5X5X5X5X5X5X5X5Xj                     ,X4X4X4X4X                4X4X4X4X,X                  u 5X5X5X5X5X5X5X5X5X5X5X5X5X",
"5X5X5X5X5X5X5X5X5X5X5XI.                        3X4X4X4X                4X4X4X3X                      L.5X5X5X5X5X5X5X5X5X5X5X5X",
"5X5X5X5X5X5X5X5X5X5X5X^                         2X4X4X4X                4X4X4X2X                      ~ 5X5X5X5X5X5X5X5X5X5X5X5X",
"5X5X5X5X5X5X5X5X5X5X&X                          r +X4X4X                4X4X+Xr               g .X!     %X5X5X5X5X5X5X5X5X5X5X5X",
"5X5X5X5X5X5X5X5X5X5XY.                            C <X2X                2X<XC                 #.OX}.o   U.5X5X5X5X5X5X5X5X5X5X5X",
"5X5X5X5X5X5X5X5X5X5X:.                              m >X                :Xm                   T OXOX.X  ;.5X5X5X5X5X5X5X5X5X5X5X",
"5X5X5X5X5X5X5X5X5X5X`                                                                       N h  XOXOX.X) 5X5X5X5X5X5X5X5X5X5X5X",
"5X5X5X5X5X5X5X5X5X5XS                                                                     o .X].B   2 8 A 5X5X5X5X5X5X5X5X5X5X5X",
"5X5X5X5X5X5X5X5X5X5Xy                                                               * I * o  X[.6       t 5X5X5X5X5X5X5X5X5X5X5X",
"5X5X5X5X5X5X5X5X5X5X                                                              = |.OX{.'.7 U           5X5X5X5X5X5X5X5X5X5X5X",
"5X5X5X5X5X5X5X5X5X5Xy                                                               Y [.oXXX>           t 5X5X5X5X5X5X5X5X5X5X5X",
"5X5X5X5X5X5X5X5X5X5XS                                                                   `.oXf           Z 5X5X5X5X5X5X5X5X5X5X5X",
"5X5X5X5X5X5X5X5X5X5X_                                                                   8 _.:           ( 5X5X5X5X5X5X5X5X5X5X5X",
"5X5X5X5X5X5X5X5X5X5X:.                                                                                  -.5X5X5X5X5X5X5X5X5X5X5X",
"5X5X5X5X5X5X5X5X5X5XK.  % } t.h.Z.J.Z.h.y.} 1                                     % } t.h.Z.J.Z.h.y.} 1 ' ;X5X5X5X5X5X5X5X5X5X5X",
"5X5X5X5X5X5X5X5X5XQ.s X.c.J.J.J.J.J.J.J.J.J.n.O.$                             @ X.c.J.J.J.J.J.J.J.J.J.n.O.v W.5X5X5X5X5X5X5X5X5X",
"5X5X5X5X5X5X5X5X7.G s.J.J.J.J.J.J.J.J.J.J.J.J.J.g.J                         G s.J.J.J.J.J.J.J.J.J.J.J.J.J.g.J 6.5X5X5X5X5X5X5X5X",
"5X5X5X5X5X5X5X9.L B.J.J.J.J.J.J.J.J.J.J.J.J.J.J.J.B.L                     L B.J.J.J.J.J.J.J.J.J.J.J.J.J.J.J.B.L 5.5X5X5X5X5X5X5X",
"5X5X5X5X5X5X!.G m.J.J.J.J.J.J.J.J.J.J.J.J.J.J.J.J.J.C.J                 G m.J.J.J.J.J.J.J.J.J.J.J.J.J.J.J.J.J.C.J W.5X5X5X5X5X5X",
"5X5X5X5X5X5Xc s.J.J.J.J.J.J.J.J.J.J.J.J.J.J.J.J.J.J.J.g.#             # s.J.J.J.J.J.J.J.J.J.J.J.J.J.J.J.J.J.J.J.g.d ;X5X5X5X5X5X",
"5X5X5X5X5X3.O.J.J.J.J.J.J.J.J.J.J.J.J.J.J.J.J.J.J.J.J.J.@.            O.J.J.J.J.J.J.J.J.J.J.J.J.J.J.J.J.J.J.J.J.J.@.1.5X5X5X5X5X",
"5X5X5X5X5Xi b.J.J.J.J.J.J.J.J.J.J.J.J.J.J.J.J.J.J.J.J.J.m.1         % b.J.J.J.J.J.J.J.J.J.J.J.J.J.J.J.J.J.J.J.J.J.m.p 5X5X5X5X5X",
"5X5X5X5XR.{ J.J.J.J.J.J.J.J.J.J.J.J.J.J.J.J.J.J.J.J.J.J.J. .        { J.J.J.J.J.J.J.J.J.J.J.J.J.J.J.J.J.J.J.J.J.J.J. .Y.5X5X5X5X",
"5X5X5X5X&.r.J.J.J.J.J.J.J.J.J.J.J.J.J.J.J.J.J.J.J.J.J.J.J.y.        r.J.J.J.J.J.J.J.J.J.J.J.J.J.J.J.J.J.J.J.J.J.J.J.y.$.5X5X5X5X",
"5X5X5X5XQ g.J.J.J.J.J.J.J.J.J.J.J.J.J.J.J.J.J.J.J.J.J.J.J.j.        g.J.J.J.J.J.J.J.J.J.J.H.J.J.J.J.J.J.J.J.J.J.J.J.j.E 5X5X5X5X",
"5X5X5X5Xj V.J.J.J.J.J.J.J.J.J.p.#   4 G.J.J.J.J.J.J.J.J.J.S.        V.J.J.J.J.J.J.J.J.J.l.4   . J.J.J.J.J.J.J.J.J.J.S.r 5X5X5X5X",
"5X5X5X5XO J.J.J.J.J.J.J.J.J.J.k.      Z.J.J.J.J.J.J.J.J.J.J.        J.J.J.J.J.J.J.J.J.J.u.      z.J.J.J.J.J.J.J.J.J.J.  5X5X5X5X",
"5X5X5X5Xj V.J.J.J.J.J.J.J.J.J.M.5   @ J.J.J.J.J.J.J.J.J.J.S.        V.J.J.J.J.J.J.J.J.J.F.  . . A.J.J.J.J.J.J.J.J.J.S.r 5X5X5X5X",
"5X5X5X5XQ g.J.J.J.J.J.J.J.J.J.J.J.D.F.J.J.J.J.J.J.J.J.J.J.j.        g.J.J.J.J.J.J.J.J.J.J.G.i.C.J.J.J.J.J.J.J.J.J.J.j.W 5X5X5X5X",
"5X5X5X5X&.r.J.J.J.J.J.J.J.J.J.J.J.J.J.J.J.J.J.J.J.J.J.J.J.y.        r.J.J.J.J.J.J.J.J.J.J.J.J.J.J.J.J.J.J.J.J.J.J.J.y.%.5X5X5X5X",
"5X5X5X5XR.{ J.J.J.J.J.J.J.J.J.J.J.J.J.J.J.J.J.J.J.J.J.J.J.| X   X ; { J.J.J.J.J.J.J.J.J.J.J.J.J.J.J.J.J.J.J.J.J.J.J.| Y.5X5X5X5X",
"5X5X5X5X5Xi v.J.J.J.J.J.J.J.J.J.J.J.J.J.J.J.J.J.J.J.J.J.n.3 O X   O e v.J.J.J.J.J.J.J.J.J.J.J.J.J.J.J.J.J.J.J.J.J.n.p 5X5X5X5X5X",
"5X5X5X5X5X4.o.J.J.J.J.J.J.J.J.J.J.J.J.J.J.J.J.J.J.J.J.J.+.;         < o.J.J.J.J.J.J.J.J.J.J.J.J.J.J.J.J.J.J.J.J.J.+.2.5X5X5X5X5X",
"5X5X5X5X5X5Xb a.J.J.J.J.J.J.J.J.J.J.J.J.J.J.J.J.J.J.J.f.& X     X     w a.J.J.J.J.J.J.J.J.J.J.J.J.J.J.J.J.J.J.J.f.d ;X5X5X5X5X5X",
"5X5X5X5X5X5X~.D m.J.J.J.J.J.J.J.J.J.J.J.J.J.J.J.J.J.M.H                 D m.J.J.J.J.J.J.J.J.J.J.J.J.J.J.J.J.J.M.H !.5X5X5X5X5X5X",
"5X5X5X5X5X5X5X9.K N.J.J.J.J.J.J.J.J.J.J.J.J.J.J.J.V.P 9.,             , 9.K N.J.J.J.J.J.J.J.J.J.J.J.J.J.J.J.V.P 9.5X5X5X5X5X5X5X",
"5X5X5X5X5X5X5X5X8.F s.J.J.J.J.J.J.J.J.J.J.J.J.J.s.G 8.5X5X,   X       5X5X8.F s.J.J.J.J.J.J.J.J.J.J.J.J.J.s.G 8.5X5X5X5X5X5X5X5X",
"5X5X5X5X5X5X5X5X5X~.l ..x.J.J.J.J.J.J.J.J.J.b.o.x Q.5X5X5XO - + X   O 5X5X5X~.l ..x.J.J.J.J.J.J.J.J.J.b.o.x Q.5X5X5X5X5X5X5X5X5X",
"5X5X5X5X5X5X5X5X5X5X5X4.a ] w.d.B.H.B.f.e.[ a 3.5X5X5X5X5X, O O O   ; 5X5X5X5X5X4.a ] w.d.B.H.B.f.e.[ a 3.5X5X5X5X5X5X5X5X5X5X5X",
"5X5X5X5X5X5X5X5X5X5X5X5X5XE.*.E k   j Q *.T.5X5X5X5X5X5X5Xq         X &X5X5X5X5X5X5XE.*.E k   j Q *.T.5X5X5X5X5X5X5X5X5X5X5X5X5X",
"5X5X5X5X5X5X5X5X5X5X5X5X5X5X5X5X5X5X5X5X5X5X5X5X5X5X5X< -               9 @X5X5X5X5X5X5X5X5X5X5X5X5X5X5X5X5X5X5X5X5X5X5X5X5X5X5X",
"5X5X5X5X5X5X5X5X5X5X5X5X5X5X5X5X5X5X5X5X5X5X5X5X5X5Xu X X     X X X       9 ).5X5X5X5X5X5X5X5X5X5X5X5X5X5X5X5X5X5X5X5X5X5X5X5X5X",
"5X5X5X5X5X5X5X5X5X5X5X5X5X5X5X5X5X5X5X5X5X5X5X5X5X5X5X5X5X5X5X5X5X5X5X$X*X5X5X5X5X5X5X5X5X5X5X5X5X5X5X5X5X5X5X5X5X5X5X5X5X5X5X5X",
"5X5X5X5X5X5X5X5X5X5X5X5X5X5X5X5X5X5X5X5X5X5X5X5X5X5X5X5X5X5X5X5X5X5X5X5X5X5X5X5X5X5X5X5X5X5X5X5X5X5X5X5X5X5X5X5X5X5X5X5X5X5X5X5X",
"5X5X5X5X5X5X5X5X5X5X5X5X5X5X5X5X5X5X5X5X5X5X5X5X5X5X5X5X5X5X5X5X5X5X5X5X5X5X5X5X5X5X5X5X5X5X5X5X5X5X5X5X5X5X5X5X5X5X5X5X5X5X5X5X",
"5X5X5X5X5X5X5X5X5X5X5X5X5X5X5X5X5X5X5X5X5X5X5X5X5X5X5X5X5X5X5X5X5X5X5X5X5X5X5X5X5X5X5X5X5X5X5X5X5X5X5X5X5X5X5X5X5X5X5X5X5X5X5X5X",
"5X5X5X5X5X5X5X5X5X5X5X5X5X5X5X5X5X5X5X5X5X5X5X5X5X5X5X5X5X5X5X5X5X5X5X5X5X5X5X5X5X5X5X5X5X5X5X5X5X5X5X5X5X5X5X5X5X5X5X5X5X5X5X5X"
};
