/* XPM */
static char *result[] = {
/* columns rows colors chars-per-pixel */
"64 64 4 1 ",
"  c #FDFDFD",
". c #FEFEFE",
"X c white",
"o c None",
/* pixels */
"oXXXoooooooooooooooooooooooooooooooooooooooooooooooooooooooooooo",
"oXXXoooooooooooooooooooooooooooooooooooooooooooooooooooooooooooo",
"ooXXooooooooooooooooooooooooooo.ooooooooooooooooooooooooooooooXX",
"oooXooooooooooooooooooooooooooo.oooooooooooooooooooooooooooX..XX",
"oooXXoooooooooooooooooooooooooo.ooooooooooooooooooooooooooXXXooo",
"oooXXXXooooooooooooooooooooooooXXoooooooooooooooooooooooo.XXoooo",
"oooooXXXoooooooooooooooooooooooo..ooooooooooooooooooooooo.XXoooo",
"ooooooXXoooooooooooXXXXXXXXXXoooo.oooooooooooooooooooooooXXooooo",
"oooooooXXoooooooooXXXoooooooXXoo..XoooooooooooooooooooooXXXooooo",
"oooooooXXXXX..XXXXXXoooooooooX....XXXXXXooooooooooooooo.XXoooooo",
"ooooooooooXX..oooooooooooooooo..XXooooooXXooooooooooooXXoooooooo",
"oooooooooooX..ooooooooooooooooXXXXoooooooX..XooooooXXXXooooooooo",
"oooooooooooX..oooooooooooooooooXXooooooooooXXXooooo.Xooooooooooo",
"oooooooooooX..XooooooooooooooooXoooooooooooooXXXoo..oooooooooooo",
"ooooooooooo.oo..ooooooooooooooo.oooooooooooooo......Xooooooooooo",
"ooooooooooo.ooo.oooooooooooooo..ooooooooooooooo.....Xooooooooooo",
"oooooooooo.oooo.oooooooooooooo..oooooooooooooooX.oooXXoooooooooo",
"ooooooooooXooooXoooooooooXXXXX....XX..XXoooooooXoooooXXXXooooooo",
"oooooooooXXooooXooooooooXX.oooXXXoooooXXXoooooo.ooooooooXXoooooo",
"ooooooooXXoooooXXXXX..XXXooooooXoooooooXXXXXooo.ooooooooXXoooooo",
"oooooooo.ooooooooooo..XXoooooooXoooooooo..XX.o..oooooooo..oooooo",
"oooooooX.ooooooooooo..XXoooooooXooooooooo.XX..XXooooooo..ooooooo",
"oooooooX.oooooooooooXXXXooooooo.Xooooooo..oo..Xoooooooo.oooooooo",
"oooooooXooooooooooo.XXXXXoooooo.XXoooooXXXoo..Xoooooooo.oooooooo",
"ooooooXXoooooooooooXXoooXXooooooXXooooo.XoooXXoooooooooXXooooooo",
"ooooooXXooooooooooXXoooooXXXoooooXooooo.ooo.XXoooooooooXXooooooo",
"oooooXXooooooooooo..ooooooXXXoooo..oooXXoooXoooooooooooo..oooooo",
"oooooXooooooooo.XX.ooooooooXXoooo...XXXooooXoooooooooooo..oooooo",
"ooooo.oooooooooXXoooooooooooXoooo.Xoooooooo.ooooooooooooo.oooooo",
"oooo..oooooooooXooooooooooooooooo.Xoooooooo.oooooooooooooX.ooooo",
"oooX..ooooooooXXooooooooooooXXoooX.ooooooo...oooooooooooooXXoooo",
"XXXXXXXooooooX..oooXXXXXXXXXXX..XX....XXXXXX..ooooooooooooXXoooo",
"ooooooXXooooXX..ooXXXoooooXXXX..XX..oooXXooo..XoooooooooooXXoooo",
"oooooooXXXXXXX..XXXXooooooooXX..XXXXooooooooo...XXXX..XX....XXXo",
"ooooooooXXXXoX..XXoooooooooooXXX..XXXooooooooX..XXXoooooXXoooooo",
"oooooooooXXooo..XooooooooooooXXX..XXXooooooooX.oooooooooXXoooooo",
"oooooooooXoooooX.oooooooooooXXXXooooXXoooooooXooooooooooXXoooooo",
"oooooooooXoooooX.ooooooooX..XXXXoooooXoooooooXoooooooooX..oooooo",
"oooooooooXXoooooXXoooooX...oooXXoooooXoooooooXXooooooooX.ooooooo",
"oooooooooX.ooooooXoooooX..oooooXoooooXXooooooXXooooooooXoooooooo",
"oooooooooo..oooooX.oooXX.ooooooXooooooXXXooooXXXooooooo.oooooooo",
"ooooooooooo.ooooo.....XXoooooooXooooooXXXoooo.Xoooooooo.oooooooo",
"oooooooooooXooooooooXXooooooooX..oooooooXXoo..ooooooooo.oooooooo",
"oooooooooooXooooooooXXoooooXXX. .XXXXoooXX....oooooooooXXooooooo",
"oooooooooooXooooooooXXooooXXoo. .ooXXXXoXX..XXooooooooooXooooooo",
"ooooooooooXXoooooooX..XXXXXoooo.ooooo.XXXXXXXXXoooooooooXXoooooo",
"oooooooooXXooooooooX.oooooooooXXooooooooooooooXXoooooooo..oooooo",
"ooooooooo.oooooooooXoooooooooXXXoooooooooooooooXooooooXX.ooooooo",
"ooooooooo.oooooooo..oooooooooXXooooooooooooooooXXooooXXXoooooooo",
"ooooooooo.oooooXXX.ooooooooooXoooooooooooooooooXXooooXXooooooooo",
"ooooooooo.oooo..XooooooooooooXooooooooooooooooooXXoooXoooooooooo",
"ooooooooo.XX....oooooooooooooooooooooooooooooooooXoooXoooooooooo",
"oooooooo..XX....Xooooooooooo.ooooooooooooooooooooXooXooooooooooo",
"oooooooo..XXXXXXXXXX..oooooo..oooooooooooooooooooXXX..oooooooooo",
"oooooooXXooooooooooo..XooooX..ooooooooooooooooooXX....oooooooooo",
"oooooooXooooooooooooooXXXXXX..XXXooooooooooooX..XX......Xooooooo",
"oooooooXoooooooooooooooooooooooXXXooooooooooXX.oooooooooXXoooooo",
"oooooooXoooooooooooooooooooooooo..oooooXXX..XXoooooooooooX.ooooo",
"ooooooXXooooooooooooooooooooooooo.XoooXXXooooooooooooooooo..oooo",
"oooooXXXooooooooooooooooooooooooo.XXXXXooooooooooooooooooooXoooo",
"ooooXXXoooooooooooooooooooooooooo.oooooooooooooooooooooooooX.ooo",
"XXXXXXoooooooooooooooooooooooooooXooooooooooooooooooooooooo...Xo",
"XXXoooooooooooooooooooooooooooooXXooooooooooooooooooooooooooo.XX",
"XXoooooooooooooooooooooooooooooooooooooooooooooooooooooooooooooo"
};
