/* XPM */
static char *result[] = {
/* columns rows colors chars-per-pixel */
"32 32 27 1 ",
"  c black",
". c #010101",
"X c #020202",
"o c gray1",
"O c #040404",
"+ c gray2",
"@ c #060606",
"# c #090909",
"$ c #0B0B0B",
"% c #0C0C0C",
"& c gray5",
"* c #0E0E0E",
"= c gray6",
"- c #111111",
"; c gray9",
": c #191919",
"> c gray10",
", c #1D1D1D",
"< c gray13",
"1 c gray44",
"2 c #727272",
"3 c gray45",
"4 c #BCBCBC",
"5 c #BDBCBC",
"6 c #FEFEFE",
"7 c white",
"8 c None",
/* pixels */
"88888888888888888888888888888888",
"88888888888888888888888888888888",
"888888888888888  888888888888888",
"8888888888888  77  8888888888888",
"88888888888  677777  88888888888",
"888888888 @6777777777  888888888",
"8888888  77666666766677O 8888888",
"88888 :777667777777776677  88888",
"8888 7666666666777776667776 8888",
"8888 O&666666666666667776.. 8888",
"8888 33*@77766666666777  54 8888",
"8888 3333%,7777677777X 5555 8888",
"8888 333333  777776o 555555.8888",
"8888 33333333 X77@%55555555 8888",
"8888 3333333333  4555555555 8888",
"8888 3333333333;<5555555555.8888",
"8888 3333333333  5555555555X8888",
"8888 3333333333 .5555555555+8888",
"8888 3333333333.-5555555555o8888",
"8888 3333333333 =5555455555.8888",
"8888 3333333333.X5555555555 8888",
"8888 3333333333. 5555555555 8888",
"8888 2333333333O 5555555555 8888",
"8888 3333333333O 5555555555 8888",
"8888   13333333..55455555.@ 8888",
"88888  $*333333.>555555o   88888",
"8888888 #X@3333  5555.   8888888",
"888888888 #@o33..55@+  888888888",
"88888888888  %@@ ..  88888888888",
"8888888888888      8888888888888",
"888888888888888  888888888888888",
"88888888888888888888888888888888"
};
